# xmcd
#
# Track frame offsets:
#	150
#	25414
#	52209
#	77250
#	99661
#	134108
#	156653
#	184778
#	211777
#	247930
#	283205
#	311898
#
# Disc length: 4600 seconds
#
# Revision: 0
# Processed by: cddbd v1.5.2PL0 Copyright (c) Steve Scherf et al.
# Submitted via: audiograbber 1.83.01
#
DISCID=b311f60c
DTITLE=AZ - Mezzanine De L'Alcazar Vol. 07 B
DYEAR=2009
DGENRE=Blues
TTITLE0=Ananda Projekt - Stay As You Are
TTITLE1=Studio Apartment feat. Yasmeen Sulieman - Sun Will Shine
TTITLE2=King Unique - Love Is What You Need
TTITLE3=Mike Dunn Pres The MD X-Spress - Feel The Musik 
TTITLE4=Marc Evans - The Way U Love Me
TTITLE5=Choclate Puma - Morning Rain
TTITLE6=Klement Bonelli - Revival
TTITLE7=Yass and Jay Sebag - All To Me
TTITLE8=Julien Jabre - War
TTITLE9=ATFC feat. RAE - Giv Me Luv
TTITLE10=Quentin Harris - Can't Stop
TTITLE11=Hercules And Love Affair - Blind
EXTD=
EXTT0=
EXTT1=
EXTT2=
EXTT3=
EXTT4=
EXTT5=
EXTT6=
EXTT7=
EXTT8=
EXTT9=
EXTT10=
EXTT11=
PLAYORDER=
